<svg width="512" height="512" viewBox="0 0 512 512" fill="none" xmlns="http://www.w3.org/2000/svg">
<g clip-path="url(#clip0_219_12)">
<path d="M512 472C512 494.092 494.092 512 472 512H40C17.908 512 0 494.092 0 472V40C0 17.908 17.908 0 40 0H472C494.092 0 512 17.908 512 40V472Z" fill="#FFE812"/>
<path d="M256 72C141.124 72 48 145.426 48 236C48 294.558 86.932 345.94 145.496 374.954C142.31 385.942 125.022 445.642 124.334 450.332C124.334 450.332 123.92 453.856 126.202 455.2C128.484 456.544 131.168 455.5 131.168 455.5C137.712 454.586 207.054 405.878 219.056 397.42C231.046 399.118 243.392 400 256 400C370.876 400 464 326.576 464 236C464 145.426 370.876 72 256 72Z" fill="black"/>
<path d="M141 293.25C134.382 293.25 129 288.11 129 281.79V210.5H110.276C103.782 210.5 98.5 205.228 98.5 198.75C98.5 192.272 103.784 187 110.276 187H171.724C178.218 187 183.5 192.272 183.5 198.75C183.5 205.228 178.216 210.5 171.724 210.5H153V281.79C153 288.11 147.618 293.25 141 293.25ZM246.224 293.094C241.22 293.094 237.392 291.062 236.238 287.794L230.296 272.238L193.704 272.236L187.758 287.802C186.608 291.064 182.782 293.094 177.778 293.094C175.146 293.097 172.544 292.532 170.15 291.438C166.842 289.912 163.662 285.716 167.306 274.398L196.01 198.846C198.032 193.1 204.174 187.18 211.99 187.002C219.828 187.178 225.97 193.1 227.996 198.858L256.688 274.376C260.34 285.72 257.16 289.918 253.852 291.44C251.457 292.532 248.856 293.096 246.224 293.094ZM223.986 250.982L212 216.932L200.014 250.982H223.986ZM276 291.5C269.658 291.5 264.5 286.564 264.5 280.5V199C264.5 192.382 269.996 187 276.75 187C283.504 187 289 192.382 289 199V269.5H314.5C320.842 269.5 326 274.436 326 280.5C326 286.564 320.842 291.5 314.5 291.5H276ZM342.668 293.094C336.05 293.094 330.668 287.712 330.668 281.094V199C330.668 192.382 336.05 187 342.668 187C349.286 187 354.668 192.382 354.668 199V224.792L388.148 191.312C389.87 189.59 392.236 188.642 394.804 188.642C397.8 188.642 400.808 189.934 403.062 192.186C405.164 194.286 406.418 196.988 406.59 199.794C406.764 202.624 405.822 205.218 403.942 207.1L376.596 234.442L406.134 273.574C407.088 274.829 407.782 276.262 408.178 277.788C408.573 279.314 408.662 280.903 408.438 282.464C408.224 284.026 407.702 285.529 406.903 286.888C406.104 288.246 405.043 289.432 403.782 290.378C401.707 291.955 399.171 292.806 396.564 292.8C394.705 292.809 392.869 292.382 391.205 291.553C389.54 290.725 388.092 289.518 386.978 288.03L358.836 250.742L354.672 254.906V281.088C354.668 284.271 353.402 287.322 351.152 289.573C348.902 291.823 345.851 293.09 342.668 293.094Z" fill="#FFE812"/>
</g>
<defs>
<clipPath id="clip0_219_12">
<rect width="512" height="512" fill="white"/>
</clipPath>
</defs>
</svg>
