<svg width="512" height="358" viewBox="0 0 512 358" fill="none" xmlns="http://www.w3.org/2000/svg">
<g clip-path="url(#clip0_220_2)">
<g clip-path="url(#clip1_220_2)">
<path d="M501.296 55.8278C495.396 33.7967 478.072 16.4834 456.029 10.586C416.118 -0.113644 256 -0.113647 256 -0.113647C256 -0.113647 95.8843 -0.113644 55.9711 10.586C33.9284 16.4834 16.6059 33.7967 10.7053 55.8278C3.20451e-06 95.7197 0 179 0 179C0 179 3.20451e-06 262.281 10.7053 302.173C16.6059 324.204 33.9284 341.517 55.9711 347.413C95.8843 358.114 256 358.114 256 358.114C256 358.114 416.118 358.114 456.029 347.413C478.072 341.517 495.396 324.204 501.296 302.173C512.002 262.281 512.002 179 512.002 179C512.002 179 511.959 95.7197 501.296 55.8278Z" fill="#FF0000"/>
<path d="M204.752 255.757L337.768 179.007L204.752 102.256V255.757Z" fill="white"/>
</g>
</g>
<defs>
<clipPath id="clip0_220_2">
<rect width="512" height="358" fill="white"/>
</clipPath>
<clipPath id="clip1_220_2">
<rect width="512" height="358.227" fill="white" transform="translate(0 -0.113647)"/>
</clipPath>
</defs>
</svg>
